<?xml version="1.0" encoding="UTF-8" standalone="no"?>
<!DOCTYPE svg PUBLIC "-//W3C//DTD SVG 1.1//EN"
 "http://www.w3.org/Graphics/SVG/1.1/DTD/svg11.dtd">
<!-- Generated by graphviz version 2.38.0 (20140413.2041)
 -->
<!-- Title: %3 Pages: 1 -->
<svg width="228pt" height="116pt"
 viewBox="0.00 0.00 227.62 116.00" xmlns="http://www.w3.org/2000/svg" xmlns:xlink="http://www.w3.org/1999/xlink">
<g id="graph0" class="graph" transform="scale(1 1) rotate(0) translate(4 112)">
<title>%3</title>
<polygon fill="white" stroke="none" points="-4,4 -4,-112 223.617,-112 223.617,4 -4,4"/>
<!-- Ipython -->
<g id="node1" class="node"><title>Ipython</title>
<ellipse fill="none" stroke="black" cx="37.6174" cy="-90" rx="37.7352" ry="18"/>
<text text-anchor="middle" x="37.6174" y="-85.8" font-family="Times,serif" font-size="14.00">Ipython</text>
</g>
<!-- Jupyter -->
<g id="node4" class="node"><title>Jupyter</title>
<ellipse fill="none" stroke="black" cx="120.617" cy="-18" rx="36.2818" ry="18"/>
<text text-anchor="middle" x="120.617" y="-13.8" font-family="Times,serif" font-size="14.00">Jupyter</text>
</g>
<!-- Ipython&#45;&#45;Jupyter -->
<g id="edge1" class="edge"><title>Ipython&#45;&#45;Jupyter</title>
<path fill="none" stroke="black" d="M55.6272,-73.811C69.6444,-61.9893 88.9928,-45.6714 102.928,-33.9188"/>
</g>
<!-- Julia -->
<g id="node2" class="node"><title>Julia</title>
<ellipse fill="none" stroke="black" cx="120.617" cy="-90" rx="27" ry="18"/>
<text text-anchor="middle" x="120.617" y="-85.8" font-family="Times,serif" font-size="14.00">Julia</text>
</g>
<!-- Julia&#45;&#45;Jupyter -->
<g id="edge2" class="edge"><title>Julia&#45;&#45;Jupyter</title>
<path fill="none" stroke="black" d="M120.617,-71.6966C120.617,-60.8463 120.617,-46.9167 120.617,-36.1043"/>
</g>
<!-- R -->
<g id="node3" class="node"><title>R</title>
<ellipse fill="none" stroke="black" cx="192.617" cy="-90" rx="27" ry="18"/>
<text text-anchor="middle" x="192.617" y="-85.8" font-family="Times,serif" font-size="14.00">R</text>
</g>
<!-- R&#45;&#45;Jupyter -->
<g id="edge3" class="edge"><title>R&#45;&#45;Jupyter</title>
<path fill="none" stroke="black" d="M178.047,-74.8345C165.966,-63.0893 148.823,-46.4226 136.415,-34.3591"/>
</g>
</g>
</svg>
