<?xml version="1.0" encoding="UTF-8" standalone="no"?>
<!DOCTYPE svg PUBLIC "-//W3C//DTD SVG 1.1//EN"
 "http://www.w3.org/Graphics/SVG/1.1/DTD/svg11.dtd">
<!-- Generated by graphviz version 2.40.1 (20161225.0304)
 -->
<!-- Title: %3 Pages: 1 -->
<svg width="754pt" height="335pt"
 viewBox="0.00 0.00 753.67 335.00" xmlns="http://www.w3.org/2000/svg" xmlns:xlink="http://www.w3.org/1999/xlink">
<g id="graph0" class="graph" transform="scale(1 1) rotate(0) translate(4 331)">
<title>%3</title>
<polygon fill="#ffffff" stroke="transparent" points="-4,4 -4,-331 749.6701,-331 749.6701,4 -4,4"/>
<g id="clust1" class="cluster">
<title>cluster_pidgy</title>
<polygon fill="none" stroke="#000000" points="8,-8 8,-182 737.6701,-182 737.6701,-8 8,-8"/>
<text text-anchor="middle" x="372.8351" y="-166.8" font-family="Times,serif" font-size="14.00" fill="#000000">MARKDOWN literate programming</text>
</g>
<g id="clust2" class="cluster">
<title>cluster_knuth</title>
<polygon fill="none" stroke="#000000" points="15.1494,-190 15.1494,-319 559.6257,-319 559.6257,-190 15.1494,-190"/>
<text text-anchor="middle" x="287.3875" y="-303.8" font-family="Times,serif" font-size="14.00" fill="#000000">WEB literate programming</text>
</g>
<!-- MD -->
<g id="node1" class="node">
<title>MD</title>
<ellipse fill="none" stroke="#000000" cx="54.3466" cy="-111" rx="27" ry="18"/>
<text text-anchor="middle" x="54.3466" y="-107.3" font-family="Times,serif" font-size="14.00" fill="#000000">MD</text>
</g>
<!-- MARKDOWN -->
<g id="node2" class="node">
<title>MARKDOWN</title>
<ellipse fill="none" stroke="#000000" cx="288.9873" cy="-133" rx="66.0889" ry="18"/>
<text text-anchor="middle" x="288.9873" y="-129.3" font-family="Times,serif" font-size="14.00" fill="#000000">MARKDOWN</text>
</g>
<!-- MD&#45;&gt;MARKDOWN -->
<g id="edge1" class="edge">
<title>MD&#45;&gt;MARKDOWN</title>
<path fill="none" stroke="#000000" d="M81.2629,-113.5237C113.8293,-116.5771 169.977,-121.8416 215.6929,-126.1279"/>
<polygon fill="#000000" stroke="#000000" points="215.5885,-129.6334 225.8716,-127.0822 216.2421,-122.6639 215.5885,-129.6334"/>
<text text-anchor="middle" x="157.6932" y="-126.8" font-family="Times,serif" font-size="14.00" fill="#000000">WEAVE</text>
</g>
<!-- PY -->
<g id="node5" class="node">
<title>PY</title>
<ellipse fill="none" stroke="#000000" cx="288.9873" cy="-57" rx="27" ry="18"/>
<text text-anchor="middle" x="288.9873" y="-53.3" font-family="Times,serif" font-size="14.00" fill="#000000">PY</text>
</g>
<!-- MD&#45;&gt;PY -->
<g id="edge4" class="edge">
<title>MD&#45;&gt;PY</title>
<path fill="none" stroke="#000000" d="M79.9039,-105.1183C121.9537,-95.441 205.8167,-76.1408 253.565,-65.1521"/>
<polygon fill="#000000" stroke="#000000" points="254.5012,-68.5282 263.4615,-62.8745 252.9312,-61.7065 254.5012,-68.5282"/>
<text text-anchor="middle" x="157.6932" y="-96.8" font-family="Times,serif" font-size="14.00" fill="#000000">TANGLE</text>
</g>
<!-- HTML -->
<g id="node3" class="node">
<title>HTML</title>
<ellipse fill="none" stroke="#000000" cx="523.6782" cy="-133" rx="36.2938" ry="18"/>
<text text-anchor="middle" x="523.6782" y="-129.3" font-family="Times,serif" font-size="14.00" fill="#000000">HTML</text>
</g>
<!-- MARKDOWN&#45;&gt;HTML -->
<g id="edge2" class="edge">
<title>MARKDOWN&#45;&gt;HTML</title>
<path fill="none" stroke="#000000" stroke-dasharray="5,2" d="M355.2992,-133C393.9941,-133 441.8836,-133 476.6857,-133"/>
<polygon fill="#000000" stroke="#000000" points="477.0415,-136.5001 487.0415,-133 477.0415,-129.5001 477.0415,-136.5001"/>
<text text-anchor="middle" x="421.2814" y="-136.8" font-family="Times,serif" font-size="14.00" fill="#000000">PANDOC</text>
</g>
<!-- PDF -->
<g id="node4" class="node">
<title>PDF</title>
<ellipse fill="none" stroke="#000000" cx="702.3725" cy="-133" rx="27.0966" ry="18"/>
<text text-anchor="middle" x="702.3725" y="-129.3" font-family="Times,serif" font-size="14.00" fill="#000000">PDF</text>
</g>
<!-- HTML&#45;&gt;PDF -->
<g id="edge3" class="edge">
<title>HTML&#45;&gt;PDF</title>
<path fill="none" stroke="#000000" stroke-dasharray="5,2" d="M560.2709,-133C590.6867,-133 633.8103,-133 664.5597,-133"/>
<polygon fill="#000000" stroke="#000000" points="664.8791,-136.5001 674.879,-133 664.879,-129.5001 664.8791,-136.5001"/>
<text text-anchor="middle" x="617.575" y="-136.8" font-family="Times,serif" font-size="14.00" fill="#000000">PRINT</text>
</g>
<!-- PYC -->
<g id="node6" class="node">
<title>PYC</title>
<ellipse fill="none" stroke="#000000" cx="523.6782" cy="-57" rx="28.6953" ry="18"/>
<text text-anchor="middle" x="523.6782" y="-53.3" font-family="Times,serif" font-size="14.00" fill="#000000">PYC</text>
</g>
<!-- PY&#45;&gt;PYC -->
<g id="edge5" class="edge">
<title>PY&#45;&gt;PYC</title>
<path fill="none" stroke="#000000" d="M316.3687,-57C357.9618,-57 437.241,-57 484.7939,-57"/>
<polygon fill="#000000" stroke="#000000" points="485.0088,-60.5001 495.0087,-57 485.0087,-53.5001 485.0088,-60.5001"/>
<text text-anchor="middle" x="421.2814" y="-60.8" font-family="Times,serif" font-size="14.00" fill="#000000">PYTHON</text>
</g>
<!-- IPYNB -->
<g id="node7" class="node">
<title>IPYNB</title>
<ellipse fill="none" stroke="#000000" cx="54.3466" cy="-34" rx="38.1938" ry="18"/>
<text text-anchor="middle" x="54.3466" y="-30.3" font-family="Times,serif" font-size="14.00" fill="#000000">IPYNB</text>
</g>
<!-- IPYNB&#45;&gt;PY -->
<g id="edge6" class="edge">
<title>IPYNB&#45;&gt;PY</title>
<path fill="none" stroke="#000000" stroke-dasharray="1,5" d="M92.0457,-37.6953C135.9676,-42.0007 208.0794,-49.0692 251.7867,-53.3535"/>
<polygon fill="#000000" stroke="#000000" points="251.6932,-56.861 261.987,-54.3534 252.3761,-49.8944 251.6932,-56.861"/>
<text text-anchor="middle" x="157.6932" y="-49.8" font-family="Times,serif" font-size="14.00" fill="#000000">TANGLE</text>
</g>
<!-- WEB -->
<g id="node8" class="node">
<title>WEB</title>
<ellipse fill="none" stroke="#000000" cx="54.3466" cy="-243" rx="31.3957" ry="18"/>
<text text-anchor="middle" x="54.3466" y="-239.3" font-family="Times,serif" font-size="14.00" fill="#000000">WEB</text>
</g>
<!-- TEX -->
<g id="node9" class="node">
<title>TEX</title>
<ellipse fill="none" stroke="#000000" cx="288.9873" cy="-216" rx="28.6953" ry="18"/>
<text text-anchor="middle" x="288.9873" y="-212.3" font-family="Times,serif" font-size="14.00" fill="#000000">TEX</text>
</g>
<!-- WEB&#45;&gt;TEX -->
<g id="edge7" class="edge">
<title>WEB&#45;&gt;TEX</title>
<path fill="none" stroke="#000000" d="M84.7333,-238.2468C98.449,-236.1831 114.867,-233.8259 129.6932,-232 170.7112,-226.9484 217.8198,-222.3673 250.1061,-219.4143"/>
<polygon fill="#000000" stroke="#000000" points="250.8133,-222.8647 260.4569,-218.4769 250.182,-215.8932 250.8133,-222.8647"/>
<text text-anchor="middle" x="157.6932" y="-235.8" font-family="Times,serif" font-size="14.00" fill="#000000">WEAVE</text>
</g>
<!-- PAS -->
<g id="node11" class="node">
<title>PAS</title>
<ellipse fill="none" stroke="#000000" cx="288.9873" cy="-270" rx="27.0966" ry="18"/>
<text text-anchor="middle" x="288.9873" y="-266.3" font-family="Times,serif" font-size="14.00" fill="#000000">PAS</text>
</g>
<!-- WEB&#45;&gt;PAS -->
<g id="edge9" class="edge">
<title>WEB&#45;&gt;PAS</title>
<path fill="none" stroke="#000000" d="M85.0218,-246.5298C127.8933,-251.463 205.6414,-260.4094 251.7697,-265.7174"/>
<polygon fill="#000000" stroke="#000000" points="251.6076,-269.2217 261.9422,-266.8879 252.4079,-262.2676 251.6076,-269.2217"/>
<text text-anchor="middle" x="157.6932" y="-261.8" font-family="Times,serif" font-size="14.00" fill="#000000">TANGLE</text>
</g>
<!-- DVI -->
<g id="node10" class="node">
<title>DVI</title>
<ellipse fill="none" stroke="#000000" cx="523.6782" cy="-216" rx="27" ry="18"/>
<text text-anchor="middle" x="523.6782" y="-212.3" font-family="Times,serif" font-size="14.00" fill="#000000">DVI</text>
</g>
<!-- TEX&#45;&gt;DVI -->
<g id="edge8" class="edge">
<title>TEX&#45;&gt;DVI</title>
<path fill="none" stroke="#000000" d="M317.765,-216C360.2104,-216 439.6173,-216 486.4476,-216"/>
<polygon fill="#000000" stroke="#000000" points="486.4839,-219.5001 496.4838,-216 486.4838,-212.5001 486.4839,-219.5001"/>
<text text-anchor="middle" x="421.2814" y="-219.8" font-family="Times,serif" font-size="14.00" fill="#000000">TEX</text>
</g>
<!-- REL -->
<g id="node12" class="node">
<title>REL</title>
<ellipse fill="none" stroke="#000000" cx="523.6782" cy="-270" rx="27.8951" ry="18"/>
<text text-anchor="middle" x="523.6782" y="-266.3" font-family="Times,serif" font-size="14.00" fill="#000000">REL</text>
</g>
<!-- PAS&#45;&gt;REL -->
<g id="edge10" class="edge">
<title>PAS&#45;&gt;REL</title>
<path fill="none" stroke="#000000" d="M316.3687,-270C358.0742,-270 437.6699,-270 485.1787,-270"/>
<polygon fill="#000000" stroke="#000000" points="485.3772,-273.5001 495.3772,-270 485.3772,-266.5001 485.3772,-273.5001"/>
<text text-anchor="middle" x="421.2814" y="-273.8" font-family="Times,serif" font-size="14.00" fill="#000000">PASCAL</text>
</g>
</g>
</svg>
