<?xml version="1.0" encoding="UTF-8" standalone="no"?>
<!DOCTYPE svg PUBLIC "-//W3C//DTD SVG 1.1//EN"
 "http://www.w3.org/Graphics/SVG/1.1/DTD/svg11.dtd">
<!-- Generated by graphviz version 2.40.1 (20161225.0304)
 -->
<!-- Title: %3 Pages: 1 -->
<svg width="754pt" height="386pt"
 viewBox="0.00 0.00 753.67 386.00" xmlns="http://www.w3.org/2000/svg" xmlns:xlink="http://www.w3.org/1999/xlink">
<g id="graph0" class="graph" transform="scale(1 1) rotate(0) translate(4 382)">
<title>%3</title>
<polygon fill="#ffffff" stroke="transparent" points="-4,4 -4,-382 749.6701,-382 749.6701,4 -4,4"/>
<g id="clust1" class="cluster">
<title>cluster_pidgy</title>
<polygon fill="none" stroke="#000000" points="8,-8 8,-233 737.6701,-233 737.6701,-8 8,-8"/>
<text text-anchor="middle" x="372.8351" y="-217.8" font-family="Times,serif" font-size="14.00" fill="#000000">PIDGY literate programming</text>
</g>
<g id="clust2" class="cluster">
<title>cluster_knuth</title>
<polygon fill="none" stroke="#000000" points="15.1494,-241 15.1494,-370 559.6257,-370 559.6257,-241 15.1494,-241"/>
<text text-anchor="middle" x="287.3875" y="-354.8" font-family="Times,serif" font-size="14.00" fill="#000000">WEB literate programming</text>
</g>
<!-- MD -->
<g id="node1" class="node">
<title>MD</title>
<ellipse fill="none" stroke="#000000" cx="54.3466" cy="-160" rx="27" ry="18"/>
<text text-anchor="middle" x="54.3466" y="-156.3" font-family="Times,serif" font-size="14.00" fill="#000000">MD</text>
</g>
<!-- MARKDOWN -->
<g id="node2" class="node">
<title>MARKDOWN</title>
<ellipse fill="none" stroke="#000000" cx="288.9873" cy="-82" rx="66.0889" ry="18"/>
<text text-anchor="middle" x="288.9873" y="-78.3" font-family="Times,serif" font-size="14.00" fill="#000000">MARKDOWN</text>
</g>
<!-- MD&#45;&gt;MARKDOWN -->
<g id="edge1" class="edge">
<title>MD&#45;&gt;MARKDOWN</title>
<path fill="none" stroke="#000000" d="M78.5735,-151.9464C115.7863,-139.576 187.8741,-115.6124 237.2029,-99.2143"/>
<polygon fill="#000000" stroke="#000000" points="238.3629,-102.5171 246.7482,-96.0413 236.1547,-95.8745 238.3629,-102.5171"/>
<text text-anchor="middle" x="157.6932" y="-137.8" font-family="Times,serif" font-size="14.00" fill="#000000">WEAVE</text>
</g>
<!-- PY -->
<g id="node5" class="node">
<title>PY</title>
<ellipse fill="none" stroke="#000000" cx="288.9873" cy="-160" rx="27" ry="18"/>
<text text-anchor="middle" x="288.9873" y="-156.3" font-family="Times,serif" font-size="14.00" fill="#000000">PY</text>
</g>
<!-- MD&#45;&gt;PY -->
<g id="edge4" class="edge">
<title>MD&#45;&gt;PY</title>
<path fill="none" stroke="#000000" d="M81.7221,-160C123.7559,-160 204.2868,-160 251.642,-160"/>
<polygon fill="#000000" stroke="#000000" points="251.7862,-163.5001 261.7862,-160 251.7862,-156.5001 251.7862,-163.5001"/>
<text text-anchor="middle" x="157.6932" y="-163.8" font-family="Times,serif" font-size="14.00" fill="#000000">TANGLE</text>
</g>
<!-- HTML -->
<g id="node3" class="node">
<title>HTML</title>
<ellipse fill="none" stroke="#000000" cx="523.6782" cy="-82" rx="36.2938" ry="18"/>
<text text-anchor="middle" x="523.6782" y="-78.3" font-family="Times,serif" font-size="14.00" fill="#000000">HTML</text>
</g>
<!-- MARKDOWN&#45;&gt;HTML -->
<g id="edge2" class="edge">
<title>MARKDOWN&#45;&gt;HTML</title>
<path fill="none" stroke="#000000" stroke-dasharray="5,2" d="M355.2992,-82C393.9941,-82 441.8836,-82 476.6857,-82"/>
<polygon fill="#000000" stroke="#000000" points="477.0415,-85.5001 487.0415,-82 477.0415,-78.5001 477.0415,-85.5001"/>
<text text-anchor="middle" x="421.2814" y="-85.8" font-family="Times,serif" font-size="14.00" fill="#000000">PANDOC</text>
</g>
<!-- PDF -->
<g id="node4" class="node">
<title>PDF</title>
<ellipse fill="none" stroke="#000000" cx="702.3725" cy="-82" rx="27.0966" ry="18"/>
<text text-anchor="middle" x="702.3725" y="-78.3" font-family="Times,serif" font-size="14.00" fill="#000000">PDF</text>
</g>
<!-- HTML&#45;&gt;PDF -->
<g id="edge3" class="edge">
<title>HTML&#45;&gt;PDF</title>
<path fill="none" stroke="#000000" stroke-dasharray="5,2" d="M560.2709,-82C590.6867,-82 633.8103,-82 664.5597,-82"/>
<polygon fill="#000000" stroke="#000000" points="664.8791,-85.5001 674.879,-82 664.879,-78.5001 664.8791,-85.5001"/>
<text text-anchor="middle" x="617.575" y="-85.8" font-family="Times,serif" font-size="14.00" fill="#000000">PRINT</text>
</g>
<!-- PYC -->
<g id="node6" class="node">
<title>PYC</title>
<ellipse fill="none" stroke="#000000" cx="523.6782" cy="-160" rx="28.6953" ry="18"/>
<text text-anchor="middle" x="523.6782" y="-156.3" font-family="Times,serif" font-size="14.00" fill="#000000">PYC</text>
</g>
<!-- PY&#45;&gt;PYC -->
<g id="edge5" class="edge">
<title>PY&#45;&gt;PYC</title>
<path fill="none" stroke="#000000" d="M316.3687,-160C357.9618,-160 437.241,-160 484.7939,-160"/>
<polygon fill="#000000" stroke="#000000" points="485.0088,-163.5001 495.0087,-160 485.0087,-156.5001 485.0088,-163.5001"/>
<text text-anchor="middle" x="421.2814" y="-163.8" font-family="Times,serif" font-size="14.00" fill="#000000">PYTHON</text>
</g>
<!-- IPYNB -->
<g id="node7" class="node">
<title>IPYNB</title>
<ellipse fill="none" stroke="#000000" cx="54.3466" cy="-59" rx="38.1938" ry="18"/>
<text text-anchor="middle" x="54.3466" y="-55.3" font-family="Times,serif" font-size="14.00" fill="#000000">IPYNB</text>
</g>
<!-- IPYNB&#45;&gt;MARKDOWN -->
<g id="edge7" class="edge">
<title>IPYNB&#45;&gt;MARKDOWN</title>
<path fill="none" stroke="#000000" d="M90.256,-52.674C102.7018,-50.7701 116.7719,-48.9382 129.6932,-48 154.5167,-46.1975 161.1182,-44.0595 185.6932,-48 204.8822,-51.0769 225.3404,-57.1766 242.9446,-63.3707"/>
<polygon fill="#000000" stroke="#000000" points="241.8107,-66.6825 252.4049,-66.803 244.1982,-60.1022 241.8107,-66.6825"/>
<text text-anchor="middle" x="157.6932" y="-51.8" font-family="Times,serif" font-size="14.00" fill="#000000">WEAVE</text>
</g>
<!-- IPYNB&#45;&gt;PY -->
<g id="edge6" class="edge">
<title>IPYNB&#45;&gt;PY</title>
<path fill="none" stroke="#000000" stroke-dasharray="1,5" d="M89.5246,-66.482C116.4971,-72.8552 154.298,-83.1809 185.6932,-97 212.9908,-109.0155 241.7837,-127.083 262.0158,-140.7927"/>
<polygon fill="#000000" stroke="#000000" points="260.1795,-143.7776 270.4027,-146.5591 264.1454,-138.0094 260.1795,-143.7776"/>
<text text-anchor="middle" x="157.6932" y="-100.8" font-family="Times,serif" font-size="14.00" fill="#000000">TANGLE</text>
</g>
<!-- WEB -->
<g id="node8" class="node">
<title>WEB</title>
<ellipse fill="none" stroke="#000000" cx="54.3466" cy="-294" rx="31.3957" ry="18"/>
<text text-anchor="middle" x="54.3466" y="-290.3" font-family="Times,serif" font-size="14.00" fill="#000000">WEB</text>
</g>
<!-- TEX -->
<g id="node9" class="node">
<title>TEX</title>
<ellipse fill="none" stroke="#000000" cx="288.9873" cy="-267" rx="28.6953" ry="18"/>
<text text-anchor="middle" x="288.9873" y="-263.3" font-family="Times,serif" font-size="14.00" fill="#000000">TEX</text>
</g>
<!-- WEB&#45;&gt;TEX -->
<g id="edge8" class="edge">
<title>WEB&#45;&gt;TEX</title>
<path fill="none" stroke="#000000" d="M84.7333,-289.2468C98.449,-287.1831 114.867,-284.8259 129.6932,-283 170.7112,-277.9484 217.8198,-273.3673 250.1061,-270.4143"/>
<polygon fill="#000000" stroke="#000000" points="250.8133,-273.8647 260.4569,-269.4769 250.182,-266.8932 250.8133,-273.8647"/>
<text text-anchor="middle" x="157.6932" y="-286.8" font-family="Times,serif" font-size="14.00" fill="#000000">WEAVE</text>
</g>
<!-- PAS -->
<g id="node11" class="node">
<title>PAS</title>
<ellipse fill="none" stroke="#000000" cx="288.9873" cy="-321" rx="27.0966" ry="18"/>
<text text-anchor="middle" x="288.9873" y="-317.3" font-family="Times,serif" font-size="14.00" fill="#000000">PAS</text>
</g>
<!-- WEB&#45;&gt;PAS -->
<g id="edge10" class="edge">
<title>WEB&#45;&gt;PAS</title>
<path fill="none" stroke="#000000" d="M85.0218,-297.5298C127.8933,-302.463 205.6414,-311.4094 251.7697,-316.7174"/>
<polygon fill="#000000" stroke="#000000" points="251.6076,-320.2217 261.9422,-317.8879 252.4079,-313.2676 251.6076,-320.2217"/>
<text text-anchor="middle" x="157.6932" y="-312.8" font-family="Times,serif" font-size="14.00" fill="#000000">TANGLE</text>
</g>
<!-- DVI -->
<g id="node10" class="node">
<title>DVI</title>
<ellipse fill="none" stroke="#000000" cx="523.6782" cy="-267" rx="27" ry="18"/>
<text text-anchor="middle" x="523.6782" y="-263.3" font-family="Times,serif" font-size="14.00" fill="#000000">DVI</text>
</g>
<!-- TEX&#45;&gt;DVI -->
<g id="edge9" class="edge">
<title>TEX&#45;&gt;DVI</title>
<path fill="none" stroke="#000000" d="M317.765,-267C360.2104,-267 439.6173,-267 486.4476,-267"/>
<polygon fill="#000000" stroke="#000000" points="486.4839,-270.5001 496.4838,-267 486.4838,-263.5001 486.4839,-270.5001"/>
<text text-anchor="middle" x="421.2814" y="-270.8" font-family="Times,serif" font-size="14.00" fill="#000000">TEX</text>
</g>
<!-- REL -->
<g id="node12" class="node">
<title>REL</title>
<ellipse fill="none" stroke="#000000" cx="523.6782" cy="-321" rx="27.8951" ry="18"/>
<text text-anchor="middle" x="523.6782" y="-317.3" font-family="Times,serif" font-size="14.00" fill="#000000">REL</text>
</g>
<!-- PAS&#45;&gt;REL -->
<g id="edge11" class="edge">
<title>PAS&#45;&gt;REL</title>
<path fill="none" stroke="#000000" d="M316.3687,-321C358.0742,-321 437.6699,-321 485.1787,-321"/>
<polygon fill="#000000" stroke="#000000" points="485.3772,-324.5001 495.3772,-321 485.3772,-317.5001 485.3772,-324.5001"/>
<text text-anchor="middle" x="421.2814" y="-324.8" font-family="Times,serif" font-size="14.00" fill="#000000">PASCAL</text>
</g>
</g>
</svg>
